<?xml version="1.0" standalone="no"?>
<!DOCTYPE svg PUBLIC "-//W3C//DTD SVG 20010904//EN"
 "http://www.w3.org/TR/2001/REC-SVG-20010904/DTD/svg10.dtd">
<svg version="1.0" xmlns="http://www.w3.org/2000/svg"
 width="501.000000pt" height="498.000000pt" viewBox="0 0 501.000000 498.000000"
 preserveAspectRatio="xMidYMid meet">

<g transform="translate(0.000000,498.000000) scale(0.100000,-0.100000)"
fill="#000000" stroke="none">
<path d="M2370 4493 c-422 -32 -818 -189 -1145 -454 -414 -336 -683 -821 -751
-1352 -13 -101 -15 -174 -11 -312 11 -333 77 -590 231 -892 83 -164 133 -241
182 -281 l39 -32 1593 0 c1357 0 1597 2 1620 14 122 64 310 422 392 746 41
162 52 244 57 450 4 156 1 234 -11 327 -47 354 -188 696 -407 985 -88 116
-286 312 -399 395 -403 297 -902 443 -1390 406z m368 -44 c755 -83 1393 -569
1672 -1273 17 -43 27 -82 23 -86 -4 -4 -33 -16 -63 -25 -168 -55 -319 -130
-509 -253 -63 -41 -142 -89 -175 -108 -34 -19 -56 -34 -51 -34 21 0 203 52
270 77 39 14 108 45 155 68 95 47 312 135 332 134 7 0 -5 -7 -27 -16 -255
-101 -465 -232 -465 -291 0 -30 43 -36 205 -30 73 3 139 2 146 -2 7 -5 -20
-19 -72 -35 -119 -39 -294 -47 -362 -17 -53 24 -61 51 -28 94 19 24 18 24 -92
-13 -62 -20 -186 -55 -277 -76 -156 -36 -174 -38 -330 -38 -178 0 -284 13
-425 50 -128 33 -187 62 -295 144 -166 125 -307 278 -423 456 -70 108 -107
135 -189 135 -138 0 -395 -128 -689 -345 -64 -47 -103 -58 -97 -27 2 9 28 30
58 46 193 101 271 167 388 326 147 200 201 247 422 363 155 81 236 115 292
122 38 5 40 4 18 -6 -14 -7 -70 -33 -125 -59 -119 -56 -180 -94 -311 -195
-156 -121 -181 -161 -95 -153 59 6 186 64 245 113 95 77 126 39 136 -165 4
-89 12 -147 22 -172 25 -57 90 -147 157 -218 60 -63 61 -64 42 -25 -47 98 -66
186 -65 300 1 95 5 122 30 196 73 209 188 343 341 397 56 20 92 45 116 83 29
43 15 47 -224 66 -86 6 -126 -3 -304 -69 -324 -119 -591 -299 -950 -638 -158
-150 -278 -251 -367 -308 -105 -68 -258 -115 -258 -79 0 26 60 225 90 303 110
276 266 510 481 720 324 315 709 501 1159 559 122 16 343 18 468 4z m-1347
-2063 c79 -17 173 -63 249 -121 30 -23 116 -105 190 -182 142 -147 243 -238
324 -293 103 -69 349 -158 541 -195 103 -20 300 -25 330 -7 16 9 9 10 -35 5
-34 -3 -81 1 -123 11 -138 32 -221 96 -279 214 -31 63 -33 73 -33 177 0 101 2
114 28 163 78 149 245 229 452 220 118 -6 208 -34 317 -98 91 -55 272 -230
394 -382 119 -147 198 -218 299 -269 117 -58 226 -68 308 -29 21 10 21 10 3
-4 -27 -22 -113 -38 -165 -30 -69 10 -149 42 -215 86 -32 21 -61 37 -62 35 -2
-2 31 -41 73 -87 66 -71 193 -176 250 -209 14 -8 13 -14 -10 -53 -14 -24 -48
-65 -76 -91 l-50 -47 -1586 0 -1585 0 -41 37 c-36 32 -129 174 -129 195 0 5
18 -1 39 -12 127 -65 346 -82 510 -41 214 54 324 150 362 318 33 147 -64 305
-243 397 -84 43 -155 48 -241 16 -96 -36 -137 -102 -137 -220 0 -94 50 -158
135 -174 71 -14 159 31 185 94 18 44 -4 72 -79 99 -124 45 -123 102 1 101 95
-1 181 -45 219 -113 32 -59 24 -145 -21 -223 -111 -188 -305 -282 -501 -241
-82 16 -208 70 -249 106 -17 15 -10 13 26 -8 176 -105 388 -120 525 -38 39 24
84 62 112 93 14 17 7 16 -43 -9 -163 -81 -398 -16 -510 140 -184 257 -69 586
233 668 68 18 224 18 308 1z"/>
<path d="M2610 4020 c-69 -8 -198 -35 -206 -42 -8 -8 155 -22 256 -23 92 0
190 23 190 45 0 17 -153 30 -240 20z"/>
<path d="M3130 4017 c0 -7 20 -34 44 -61 33 -35 50 -47 68 -44 43 6 35 78 -12
103 -36 19 -100 20 -100 2z"/>
<path d="M3405 4011 c-9 -15 59 -99 92 -114 19 -9 26 -8 34 4 16 26 10 65 -15
88 -27 26 -99 40 -111 22z"/>
<path d="M2779 3927 c-64 -34 -127 -69 -140 -78 -23 -16 -23 -16 27 -12 90 9
206 -21 346 -91 123 -60 127 -61 122 -37 -13 55 -54 132 -96 177 -37 41 -121
104 -137 104 -4 0 -58 -28 -122 -63z"/>
<path d="M2595 3796 c-179 -44 -322 -218 -378 -461 -19 -87 -20 -102 -8 -182
28 -200 145 -371 306 -451 89 -44 93 -39 26 34 -111 122 -171 280 -171 455 0
109 18 189 60 268 33 61 105 151 122 151 5 0 -8 -20 -30 -45 -103 -118 -151
-302 -121 -471 12 -71 52 -195 55 -174 2 8 6 42 10 75 l8 60 7 -95 c10 -131
36 -197 102 -254 55 -49 78 -54 34 -8 -35 37 -74 118 -88 183 -7 31 -10 97 -7
159 15 303 234 638 448 685 l35 8 -55 25 c-110 49 -250 64 -355 38z"/>
<path d="M1130 2369 c-130 -22 -249 -109 -306 -224 -26 -55 -29 -69 -29 -165
0 -97 2 -110 31 -170 45 -92 69 -121 43 -50 -30 79 -24 212 13 293 51 109 162
199 279 226 66 16 191 13 272 -5 68 -15 211 -77 287 -124 59 -37 -77 85 -146
130 -125 83 -285 115 -444 89z"/>
<path d="M2871 2344 c-87 -23 -137 -50 -192 -100 -123 -116 -148 -257 -73
-424 14 -33 34 -66 44 -75 17 -15 17 -13 2 40 -31 113 14 253 110 340 63 57
151 101 233 116 117 22 324 -9 438 -66 47 -24 50 -25 32 -5 -29 32 -142 105
-210 135 -120 53 -273 69 -384 39z"/>
<path d="M2962 2065 c-117 -36 -189 -163 -137 -241 22 -34 92 -64 154 -67 61
-2 74 9 75 65 1 45 -3 48 -76 63 -32 6 -36 25 -10 48 60 54 190 7 239 -86 36
-71 -1 -165 -90 -225 -69 -48 -110 -57 -242 -56 -168 2 -339 41 -600 138 l-20
8 20 -17 c36 -30 278 -143 374 -174 162 -54 281 -74 406 -68 66 3 129 11 157
22 102 36 190 156 204 276 21 184 -135 330 -351 328 -33 0 -79 -6 -103 -14z"/>
</g>
</svg>
